<svg xmlns="http://www.w3.org/2000/svg" xmlns:xlink="http://www.w3.org/1999/xlink" width="500" zoomAndPan="magnify" viewBox="0 0 375 374.999991" height="500" preserveAspectRatio="xMidYMid meet" version="1.0"><path fill="#eaeaea" d="M 48.757812 146.109375 C 48.757812 146.109375 0.0859375 207.179688 1.367188 247.496094 C 2.648438 287.8125 40.082031 307.003906 105.679688 291.867188 C 171.277344 276.726562 244.277344 288.667969 282.488281 294.636719 C 320.695312 300.605469 372.351562 287.121094 373.632812 233.097656 C 374.910156 179.070312 314.289062 138.539062 275.871094 114.667969 C 237.449219 90.796875 167.78125 49.007812 123.636719 72.035156 C 79.492188 95.0625 48.757812 146.109375 48.757812 146.109375 Z M 48.757812 146.109375 " fill-opacity="1" fill-rule="nonzero"/><path fill="#eaeaea" d="M 201.125 61.363281 L 319.359375 61.363281 C 320.027344 61.363281 320.6875 61.429688 321.339844 61.558594 C 321.992188 61.6875 322.628906 61.878906 323.242188 62.136719 C 323.859375 62.390625 324.445312 62.703125 325 63.074219 C 325.550781 63.441406 326.066406 63.863281 326.535156 64.332031 C 327.007812 64.804688 327.429688 65.316406 327.796875 65.871094 C 328.167969 66.421875 328.480469 67.007812 328.738281 67.621094 C 328.992188 68.238281 329.183594 68.871094 329.3125 69.523438 C 329.445312 70.175781 329.507812 70.835938 329.507812 71.503906 L 329.507812 287.316406 C 329.507812 287.980469 329.445312 288.640625 329.3125 289.292969 C 329.183594 289.945312 328.992188 290.582031 328.738281 291.195312 C 328.480469 291.8125 328.167969 292.394531 327.796875 292.949219 C 327.429688 293.503906 327.007812 294.015625 326.535156 294.484375 C 326.066406 294.957031 325.550781 295.375 325 295.746094 C 324.445312 296.117188 323.859375 296.429688 323.242188 296.683594 C 322.628906 296.9375 321.992188 297.128906 321.339844 297.261719 C 320.6875 297.390625 320.027344 297.457031 319.359375 297.457031 L 201.125 297.457031 C 200.457031 297.457031 199.796875 297.390625 199.144531 297.261719 C 198.488281 297.128906 197.855469 296.9375 197.238281 296.683594 C 196.625 296.429688 196.039062 296.117188 195.484375 295.746094 C 194.929688 295.375 194.417969 294.957031 193.945312 294.484375 C 193.476562 294.015625 193.054688 293.503906 192.683594 292.949219 C 192.3125 292.394531 192 291.8125 191.746094 291.195312 C 191.492188 290.582031 191.296875 289.945312 191.167969 289.292969 C 191.039062 288.640625 190.972656 287.980469 190.972656 287.316406 L 190.972656 71.503906 C 190.972656 70.835938 191.039062 70.175781 191.167969 69.523438 C 191.296875 68.871094 191.492188 68.238281 191.746094 67.621094 C 192 67.007812 192.3125 66.421875 192.683594 65.871094 C 193.054688 65.316406 193.476562 64.804688 193.945312 64.332031 C 194.417969 63.863281 194.929688 63.441406 195.484375 63.074219 C 196.039062 62.703125 196.625 62.390625 197.238281 62.136719 C 197.855469 61.878906 198.488281 61.6875 199.144531 61.558594 C 199.796875 61.429688 200.457031 61.363281 201.125 61.363281 Z M 201.125 61.363281 " fill-opacity="1" fill-rule="nonzero"/><path fill="#cecece" d="M 319.359375 298.253906 L 201.125 298.253906 C 195.085938 298.253906 190.175781 293.347656 190.175781 287.316406 L 190.175781 71.503906 C 190.175781 65.472656 195.085938 60.566406 201.125 60.566406 L 319.359375 60.566406 C 325.394531 60.566406 330.308594 65.472656 330.308594 71.503906 L 330.308594 287.316406 C 330.308594 293.347656 325.394531 298.253906 319.359375 298.253906 Z M 201.125 62.160156 C 195.96875 62.160156 191.773438 66.351562 191.773438 71.503906 L 191.773438 287.316406 C 191.773438 292.46875 195.96875 296.65625 201.125 296.65625 L 319.359375 296.65625 C 324.515625 296.65625 328.710938 292.46875 328.710938 287.316406 L 328.710938 71.503906 C 328.710938 66.351562 324.515625 62.160156 319.359375 62.160156 Z M 201.125 62.160156 " fill-opacity="1" fill-rule="nonzero"/><path fill="#ffffff" d="M 189.726562 61.363281 L 307.960938 61.363281 C 308.628906 61.363281 309.289062 61.429688 309.941406 61.558594 C 310.59375 61.6875 311.230469 61.878906 311.84375 62.136719 C 312.460938 62.390625 313.046875 62.703125 313.601562 63.074219 C 314.152344 63.441406 314.667969 63.863281 315.136719 64.332031 C 315.609375 64.804688 316.03125 65.316406 316.398438 65.871094 C 316.769531 66.421875 317.082031 67.007812 317.339844 67.621094 C 317.59375 68.238281 317.785156 68.871094 317.914062 69.523438 C 318.046875 70.175781 318.109375 70.835938 318.109375 71.503906 L 318.109375 287.316406 C 318.109375 287.980469 318.046875 288.640625 317.914062 289.292969 C 317.785156 289.945312 317.59375 290.582031 317.339844 291.195312 C 317.082031 291.8125 316.769531 292.394531 316.398438 292.949219 C 316.03125 293.503906 315.609375 294.015625 315.136719 294.484375 C 314.667969 294.957031 314.152344 295.375 313.601562 295.746094 C 313.046875 296.117188 312.460938 296.429688 311.84375 296.683594 C 311.230469 296.9375 310.59375 297.128906 309.941406 297.261719 C 309.289062 297.390625 308.628906 297.457031 307.960938 297.457031 L 189.726562 297.457031 C 189.058594 297.457031 188.398438 297.390625 187.746094 297.261719 C 187.089844 297.128906 186.457031 296.9375 185.839844 296.683594 C 185.226562 296.429688 184.640625 296.117188 184.085938 295.746094 C 183.53125 295.375 183.019531 294.957031 182.546875 294.484375 C 182.078125 294.015625 181.65625 293.503906 181.285156 292.949219 C 180.914062 292.394531 180.601562 291.8125 180.347656 291.195312 C 180.09375 290.582031 179.898438 289.945312 179.769531 289.292969 C 179.640625 288.640625 179.574219 287.980469 179.574219 287.316406 L 179.574219 71.503906 C 179.574219 70.835938 179.640625 70.175781 179.769531 69.523438 C 179.898438 68.871094 180.09375 68.238281 180.347656 67.621094 C 180.601562 67.007812 180.914062 66.421875 181.285156 65.871094 C 181.65625 65.316406 182.078125 64.804688 182.546875 64.332031 C 183.019531 63.863281 183.53125 63.441406 184.085938 63.074219 C 184.640625 62.703125 185.226562 62.390625 185.839844 62.136719 C 186.457031 61.878906 187.089844 61.6875 187.746094 61.558594 C 188.398438 61.429688 189.058594 61.363281 189.726562 61.363281 Z M 189.726562 61.363281 " fill-opacity="1" fill-rule="nonzero"/><path fill="#cecece" d="M 307.960938 298.253906 L 189.726562 298.253906 C 183.6875 298.253906 178.777344 293.347656 178.777344 287.316406 L 178.777344 71.503906 C 178.777344 65.472656 183.6875 60.566406 189.726562 60.566406 L 307.960938 60.566406 C 313.996094 60.566406 318.910156 65.472656 318.910156 71.503906 L 318.910156 287.316406 C 318.910156 293.347656 313.996094 298.253906 307.960938 298.253906 Z M 189.726562 62.160156 C 184.570312 62.160156 180.375 66.351562 180.375 71.503906 L 180.375 287.316406 C 180.375 292.46875 184.570312 296.65625 189.726562 296.65625 L 307.960938 296.65625 C 313.117188 296.65625 317.3125 292.46875 317.3125 287.316406 L 317.3125 71.503906 C 317.3125 66.351562 313.117188 62.160156 307.960938 62.160156 Z M 189.726562 62.160156 " fill-opacity="1" fill-rule="nonzero"/><path fill="#cecece" d="M 268.265625 292.664062 L 229.417969 292.664062 C 228.976562 292.664062 228.621094 292.304688 228.621094 291.867188 C 228.621094 291.425781 228.976562 291.066406 229.417969 291.066406 L 268.265625 291.066406 C 268.707031 291.066406 269.066406 291.425781 269.066406 291.867188 C 269.066406 292.304688 268.707031 292.664062 268.265625 292.664062 Z M 268.265625 292.664062 " fill-opacity="1" fill-rule="nonzero"/><path fill="#cecece" d="M 200.933594 77.539062 L 190.972656 77.539062 C 190.53125 77.539062 190.175781 77.183594 190.175781 76.742188 C 190.175781 76.300781 190.53125 75.945312 190.972656 75.945312 L 200.933594 75.945312 C 201.375 75.945312 201.734375 76.300781 201.734375 76.742188 C 201.734375 77.183594 201.375 77.539062 200.933594 77.539062 Z M 200.933594 77.539062 " fill-opacity="1" fill-rule="nonzero"/><path fill="#cecece" d="M 200.933594 81.945312 L 190.972656 81.945312 C 190.53125 81.945312 190.175781 81.589844 190.175781 81.148438 C 190.175781 80.707031 190.53125 80.351562 190.972656 80.351562 L 200.933594 80.351562 C 201.375 80.351562 201.734375 80.707031 201.734375 81.148438 C 201.734375 81.589844 201.375 81.945312 200.933594 81.945312 Z M 200.933594 81.945312 " fill-opacity="1" fill-rule="nonzero"/><path fill="#cecece" d="M 200.933594 86.351562 L 190.972656 86.351562 C 190.53125 86.351562 190.175781 85.996094 190.175781 85.554688 C 190.175781 85.113281 190.53125 84.757812 190.972656 84.757812 L 200.933594 84.757812 C 201.375 84.757812 201.734375 85.113281 201.734375 85.554688 C 201.734375 85.996094 201.375 86.351562 200.933594 86.351562 Z M 200.933594 86.351562 " fill-opacity="1" fill-rule="nonzero"/><path fill="#cecece" d="M 303.585938 85.425781 C 302.316406 85.425781 301.046875 84.945312 300.082031 83.980469 C 298.148438 82.050781 298.148438 78.910156 300.082031 76.980469 C 302.011719 75.050781 305.15625 75.050781 307.089844 76.980469 C 308.023438 77.914062 308.539062 79.160156 308.539062 80.480469 C 308.539062 81.800781 308.023438 83.042969 307.089844 83.980469 C 306.121094 84.945312 304.855469 85.425781 303.585938 85.425781 Z M 303.585938 77.128906 C 302.726562 77.128906 301.867188 77.457031 301.210938 78.109375 C 299.902344 79.417969 299.902344 81.542969 301.210938 82.851562 C 302.519531 84.160156 304.648438 84.160156 305.957031 82.851562 C 306.59375 82.21875 306.941406 81.375 306.941406 80.480469 C 306.941406 79.585938 306.59375 78.742188 305.957031 78.109375 C 305.304688 77.457031 304.445312 77.128906 303.585938 77.128906 Z M 303.585938 77.128906 " fill-opacity="1" fill-rule="nonzero"/><path fill="#cecece" d="M 308.847656 86.53125 C 308.640625 86.53125 308.4375 86.453125 308.28125 86.300781 L 305.957031 83.980469 C 305.648438 83.667969 305.648438 83.164062 305.957031 82.851562 C 306.269531 82.539062 306.777344 82.539062 307.089844 82.851562 L 309.410156 85.171875 C 309.722656 85.484375 309.722656 85.988281 309.410156 86.300781 C 309.253906 86.453125 309.050781 86.53125 308.847656 86.53125 Z M 308.847656 86.53125 " fill-opacity="1" fill-rule="nonzero"/><path fill="#cecece" d="M 254.304688 81.890625 C 254.238281 81.894531 254.171875 81.894531 254.109375 81.890625 L 251.359375 81.699219 L 247.484375 86.304688 C 247.304688 86.515625 246.988281 86.542969 246.773438 86.367188 C 246.597656 86.214844 246.546875 85.96875 246.644531 85.765625 L 248.648438 81.507812 L 243.289062 81.136719 L 242.273438 82.429688 C 242.101562 82.652344 241.777344 82.691406 241.554688 82.519531 C 241.398438 82.394531 241.332031 82.195312 241.367188 82.011719 L 241.574219 81.015625 L 241.015625 80.976562 C 240.40625 80.925781 240.402344 80.03125 241.015625 79.980469 L 241.476562 79.949219 L 240.558594 76.9375 C 240.390625 76.367188 241.175781 76.03125 241.472656 76.542969 L 243.339844 79.820312 L 248.925781 79.429688 L 247.675781 75.007812 C 247.519531 74.445312 248.28125 74.113281 248.589844 74.605469 L 251.449219 79.253906 L 254.109375 79.070312 C 255.980469 79.007812 256.171875 81.691406 254.304688 81.890625 Z M 254.304688 81.890625 " fill-opacity="1" fill-rule="nonzero"/><path fill="#7cc8f0" d="M 299.800781 150.457031 C 299.800781 153.730469 302.457031 156.382812 305.734375 156.382812 L 305.734375 173.058594 C 305.734375 175.664062 303.621094 177.773438 301.011719 177.773438 L 196.675781 177.773438 C 194.066406 177.773438 191.949219 175.664062 191.949219 173.058594 L 191.949219 156.382812 C 195.230469 156.382812 197.886719 153.730469 197.886719 150.457031 C 197.886719 147.183594 195.230469 144.53125 191.949219 144.53125 L 191.949219 127.855469 C 191.949219 125.25 194.066406 123.136719 196.675781 123.136719 L 301.011719 123.136719 C 303.621094 123.136719 305.734375 125.25 305.734375 127.855469 L 305.734375 144.53125 C 302.457031 144.53125 299.800781 147.183594 299.800781 150.457031 Z M 299.800781 150.457031 " fill-opacity="1" fill-rule="nonzero"/><path fill="#58b3db" d="M 227.285156 125.132812 C 226.84375 125.132812 226.484375 124.777344 226.484375 124.335938 L 226.484375 123.136719 C 226.484375 122.699219 226.84375 122.339844 227.285156 122.339844 C 227.722656 122.339844 228.082031 122.699219 228.082031 123.136719 L 228.082031 124.335938 C 228.082031 124.777344 227.722656 125.132812 227.285156 125.132812 Z M 227.285156 125.132812 " fill-opacity="1" fill-rule="nonzero"/><path fill="#58b3db" d="M 227.285156 174.886719 C 226.84375 174.886719 226.484375 174.53125 226.484375 174.089844 L 226.484375 171.601562 C 226.484375 171.164062 226.84375 170.804688 227.285156 170.804688 C 227.722656 170.804688 228.082031 171.164062 228.082031 171.601562 L 228.082031 174.089844 C 228.082031 174.53125 227.722656 174.886719 227.285156 174.886719 Z M 227.285156 169.914062 C 226.84375 169.914062 226.484375 169.554688 226.484375 169.113281 L 226.484375 166.628906 C 226.484375 166.1875 226.84375 165.828125 227.285156 165.828125 C 227.722656 165.828125 228.082031 166.1875 228.082031 166.628906 L 228.082031 169.113281 C 228.082031 169.554688 227.722656 169.914062 227.285156 169.914062 Z M 227.285156 164.9375 C 226.84375 164.9375 226.484375 164.578125 226.484375 164.140625 L 226.484375 161.652344 C 226.484375 161.210938 226.84375 160.855469 227.285156 160.855469 C 227.722656 160.855469 228.082031 161.210938 228.082031 161.652344 L 228.082031 164.140625 C 228.082031 164.578125 227.722656 164.9375 227.285156 164.9375 Z M 227.285156 159.960938 C 226.84375 159.960938 226.484375 159.605469 226.484375 159.164062 L 226.484375 156.675781 C 226.484375 156.234375 226.84375 155.878906 227.285156 155.878906 C 227.722656 155.878906 228.082031 156.234375 228.082031 156.675781 L 228.082031 159.164062 C 228.082031 159.605469 227.722656 159.960938 227.285156 159.960938 Z M 227.285156 154.984375 C 226.84375 154.984375 226.484375 154.628906 226.484375 154.1875 L 226.484375 151.699219 C 226.484375 151.261719 226.84375 150.902344 227.285156 150.902344 C 227.722656 150.902344 228.082031 151.261719 228.082031 151.699219 L 228.082031 154.1875 C 228.082031 154.628906 227.722656 154.984375 227.285156 154.984375 Z M 227.285156 150.011719 C 226.84375 150.011719 226.484375 149.652344 226.484375 149.210938 L 226.484375 146.726562 C 226.484375 146.285156 226.84375 145.925781 227.285156 145.925781 C 227.722656 145.925781 228.082031 146.285156 228.082031 146.726562 L 228.082031 149.210938 C 228.082031 149.652344 227.722656 150.011719 227.285156 150.011719 Z M 227.285156 145.035156 C 226.84375 145.035156 226.484375 144.675781 226.484375 144.238281 L 226.484375 141.75 C 226.484375 141.308594 226.84375 140.953125 227.285156 140.953125 C 227.722656 140.953125 228.082031 141.308594 228.082031 141.75 L 228.082031 144.238281 C 228.082031 144.675781 227.722656 145.035156 227.285156 145.035156 Z M 227.285156 140.058594 C 226.84375 140.058594 226.484375 139.703125 226.484375 139.261719 L 226.484375 136.773438 C 226.484375 136.332031 226.84375 135.976562 227.285156 135.976562 C 227.722656 135.976562 228.082031 136.332031 228.082031 136.773438 L 228.082031 139.261719 C 228.082031 139.703125 227.722656 140.058594 227.285156 140.058594 Z M 227.285156 135.082031 C 226.84375 135.082031 226.484375 134.726562 226.484375 134.285156 L 226.484375 131.796875 C 226.484375 131.359375 226.84375 131 227.285156 131 C 227.722656 131 228.082031 131.359375 228.082031 131.796875 L 228.082031 134.285156 C 228.082031 134.726562 227.722656 135.082031 227.285156 135.082031 Z M 227.285156 130.109375 C 226.84375 130.109375 226.484375 129.75 226.484375 129.308594 L 226.484375 126.824219 C 226.484375 126.382812 226.84375 126.023438 227.285156 126.023438 C 227.722656 126.023438 228.082031 126.382812 228.082031 126.824219 L 228.082031 129.308594 C 228.082031 129.75 227.722656 130.109375 227.285156 130.109375 Z M 227.285156 130.109375 " fill-opacity="1" fill-rule="nonzero"/><path fill="#58b3db" d="M 227.285156 178.570312 C 226.84375 178.570312 226.484375 178.214844 226.484375 177.773438 L 226.484375 176.578125 C 226.484375 176.136719 226.84375 175.78125 227.285156 175.78125 C 227.722656 175.78125 228.082031 176.136719 228.082031 176.578125 L 228.082031 177.773438 C 228.082031 178.214844 227.722656 178.570312 227.285156 178.570312 Z M 227.285156 178.570312 " fill-opacity="1" fill-rule="nonzero"/><path fill="#c3f0ff" d="M 235.179688 130.773438 L 294.09375 130.773438 L 294.09375 138.734375 L 235.179688 138.734375 Z M 235.179688 130.773438 " fill-opacity="1" fill-rule="nonzero"/><path fill="#58b3db" d="M 235.179688 142.128906 L 264.636719 142.128906 L 264.636719 146.109375 L 235.179688 146.109375 Z M 235.179688 142.128906 " fill-opacity="1" fill-rule="nonzero"/><path fill="#c3f0ff" d="M 214.769531 131.136719 L 214.769531 169.773438 L 209.539062 169.773438 L 209.539062 131.136719 Z M 214.769531 131.136719 " fill-opacity="1" fill-rule="nonzero"/><path fill="#58b3db" d="M 207.308594 131.136719 L 207.308594 150.457031 L 204.691406 150.457031 L 204.691406 131.136719 Z M 207.308594 131.136719 " fill-opacity="1" fill-rule="nonzero"/><path fill="#c3f0ff" d="M 235.179688 154.804688 L 294.09375 154.804688 L 294.09375 162.765625 L 235.179688 162.765625 Z M 235.179688 154.804688 " fill-opacity="1" fill-rule="nonzero"/><path fill="#58b3db" d="M 235.179688 166.160156 L 264.636719 166.160156 L 264.636719 170.140625 L 235.179688 170.140625 Z M 235.179688 166.160156 " fill-opacity="1" fill-rule="nonzero"/><path fill="#eaeaea" d="M 242.496094 262.34375 L 296.445312 262.34375 C 296.9375 262.34375 297.425781 262.394531 297.90625 262.488281 C 298.390625 262.585938 298.859375 262.726562 299.3125 262.914062 C 299.765625 263.101562 300.199219 263.332031 300.609375 263.605469 C 301.015625 263.878906 301.394531 264.191406 301.742188 264.539062 C 302.089844 264.886719 302.402344 265.261719 302.675781 265.671875 C 302.949219 266.082031 303.179688 266.511719 303.367188 266.964844 C 303.554688 267.417969 303.699219 267.886719 303.792969 268.371094 C 303.890625 268.851562 303.9375 269.339844 303.9375 269.828125 C 303.9375 270.320312 303.890625 270.808594 303.792969 271.289062 C 303.699219 271.773438 303.554688 272.242188 303.367188 272.695312 C 303.179688 273.148438 302.949219 273.578125 302.675781 273.988281 C 302.402344 274.398438 302.089844 274.773438 301.742188 275.121094 C 301.394531 275.46875 301.015625 275.78125 300.609375 276.054688 C 300.199219 276.328125 299.765625 276.558594 299.3125 276.746094 C 298.859375 276.933594 298.390625 277.074219 297.90625 277.171875 C 297.425781 277.265625 296.9375 277.316406 296.445312 277.316406 L 242.496094 277.316406 C 242.003906 277.316406 241.519531 277.265625 241.035156 277.171875 C 240.554688 277.074219 240.085938 276.933594 239.628906 276.746094 C 239.175781 276.558594 238.742188 276.328125 238.335938 276.054688 C 237.925781 275.78125 237.546875 275.46875 237.199219 275.121094 C 236.851562 274.773438 236.539062 274.398438 236.265625 273.988281 C 235.992188 273.578125 235.761719 273.148438 235.574219 272.695312 C 235.386719 272.242188 235.242188 271.773438 235.148438 271.289062 C 235.050781 270.808594 235.003906 270.320312 235.003906 269.828125 C 235.003906 269.339844 235.050781 268.851562 235.148438 268.371094 C 235.242188 267.886719 235.386719 267.417969 235.574219 266.964844 C 235.761719 266.511719 235.992188 266.082031 236.265625 265.671875 C 236.539062 265.261719 236.851562 264.886719 237.199219 264.539062 C 237.546875 264.191406 237.925781 263.878906 238.335938 263.605469 C 238.742188 263.332031 239.175781 263.101562 239.628906 262.914062 C 240.085938 262.726562 240.554688 262.585938 241.035156 262.488281 C 241.519531 262.394531 242.003906 262.34375 242.496094 262.34375 Z M 242.496094 262.34375 " fill-opacity="1" fill-rule="nonzero"/><path fill="#cecece" d="M 296.445312 278.113281 L 242.496094 278.113281 C 237.925781 278.113281 234.207031 274.398438 234.207031 269.828125 C 234.207031 265.261719 237.925781 261.546875 242.496094 261.546875 L 296.445312 261.546875 C 301.015625 261.546875 304.738281 265.261719 304.738281 269.828125 C 304.738281 274.398438 301.015625 278.113281 296.445312 278.113281 Z M 242.496094 263.144531 C 238.804688 263.144531 235.800781 266.144531 235.800781 269.832031 C 235.800781 273.515625 238.804688 276.515625 242.496094 276.515625 L 296.445312 276.515625 C 300.136719 276.515625 303.140625 273.515625 303.140625 269.832031 C 303.140625 266.144531 300.136719 263.144531 296.445312 263.144531 Z M 242.496094 263.144531 " fill-opacity="1" fill-rule="nonzero"/><path fill="#b4b1b6" d="M 260.464844 269.835938 C 260.464844 270.722656 260.246094 271.40625 259.804688 271.882812 C 259.363281 272.359375 258.734375 272.59375 257.914062 272.59375 C 257.089844 272.59375 256.460938 272.359375 256.019531 271.882812 C 255.582031 271.40625 255.359375 270.722656 255.359375 269.832031 C 255.359375 268.9375 255.582031 268.257812 256.023438 267.789062 C 256.464844 267.320312 257.097656 267.082031 257.917969 267.082031 C 258.742188 267.082031 259.375 267.320312 259.808594 267.792969 C 260.246094 268.269531 260.464844 268.949219 260.464844 269.835938 Z M 256.550781 269.835938 C 256.550781 270.4375 256.664062 270.886719 256.894531 271.1875 C 257.121094 271.492188 257.460938 271.644531 257.914062 271.644531 C 258.820312 271.644531 259.273438 271.042969 259.273438 269.835938 C 259.273438 268.632812 258.820312 268.027344 257.917969 268.027344 C 257.46875 268.027344 257.125 268.179688 256.898438 268.484375 C 256.667969 268.789062 256.550781 269.238281 256.550781 269.835938 Z M 256.550781 269.835938 " fill-opacity="1" fill-rule="nonzero"/><path fill="#b4b1b6" d="M 263.464844 270.46875 L 263.464844 272.523438 L 262.328125 272.523438 L 262.328125 267.167969 L 263.886719 267.167969 C 264.617188 267.167969 265.15625 267.300781 265.503906 267.566406 C 265.855469 267.828125 266.03125 268.230469 266.03125 268.773438 C 266.03125 269.085938 265.941406 269.367188 265.769531 269.613281 C 265.59375 269.859375 265.351562 270.050781 265.03125 270.1875 C 265.839844 271.394531 266.363281 272.171875 266.609375 272.523438 L 265.347656 272.523438 L 264.066406 270.46875 Z M 263.464844 269.542969 L 263.828125 269.542969 C 264.1875 269.542969 264.453125 269.484375 264.625 269.367188 C 264.796875 269.246094 264.882812 269.058594 264.882812 268.800781 C 264.882812 268.546875 264.792969 268.367188 264.621094 268.257812 C 264.445312 268.152344 264.175781 268.097656 263.808594 268.097656 L 263.464844 268.097656 Z M 263.464844 269.542969 " fill-opacity="1" fill-rule="nonzero"/><path fill="#b4b1b6" d="M 272.480469 269.792969 C 272.480469 270.675781 272.230469 271.351562 271.730469 271.820312 C 271.226562 272.289062 270.5 272.523438 269.550781 272.523438 L 268.035156 272.523438 L 268.035156 267.167969 L 269.71875 267.167969 C 270.59375 267.167969 271.273438 267.398438 271.757812 267.859375 C 272.238281 268.320312 272.480469 268.964844 272.480469 269.792969 Z M 271.300781 269.824219 C 271.300781 268.671875 270.792969 268.097656 269.777344 268.097656 L 269.171875 268.097656 L 269.171875 271.585938 L 269.660156 271.585938 C 270.753906 271.585938 271.300781 270.996094 271.300781 269.824219 Z M 271.300781 269.824219 " fill-opacity="1" fill-rule="nonzero"/><path fill="#b4b1b6" d="M 277.429688 272.523438 L 274.34375 272.523438 L 274.34375 267.167969 L 277.429688 267.167969 L 277.429688 268.097656 L 275.480469 268.097656 L 275.480469 269.273438 L 277.296875 269.273438 L 277.296875 270.203125 L 275.480469 270.203125 L 275.480469 271.585938 L 277.429688 271.585938 Z M 277.429688 272.523438 " fill-opacity="1" fill-rule="nonzero"/><path fill="#b4b1b6" d="M 280.4375 270.46875 L 280.4375 272.523438 L 279.300781 272.523438 L 279.300781 267.167969 L 280.863281 267.167969 C 281.589844 267.167969 282.128906 267.300781 282.480469 267.566406 C 282.828125 267.828125 283.003906 268.230469 283.003906 268.773438 C 283.003906 269.085938 282.917969 269.367188 282.742188 269.613281 C 282.570312 269.859375 282.324219 270.050781 282.007812 270.1875 C 282.8125 271.394531 283.339844 272.171875 283.582031 272.523438 L 282.320312 272.523438 L 281.042969 270.46875 Z M 280.4375 269.542969 L 280.804688 269.542969 C 281.164062 269.542969 281.429688 269.484375 281.597656 269.367188 C 281.769531 269.246094 281.855469 269.058594 281.855469 268.800781 C 281.855469 268.546875 281.769531 268.367188 281.59375 268.257812 C 281.417969 268.152344 281.148438 268.097656 280.78125 268.097656 L 280.4375 268.097656 Z M 280.4375 269.542969 " fill-opacity="1" fill-rule="nonzero"/><path fill="#eaeaea" d="M 223.683594 100.890625 L 274.003906 100.890625 C 274.304688 100.890625 274.601562 100.917969 274.898438 100.976562 C 275.191406 101.035156 275.480469 101.121094 275.757812 101.238281 C 276.035156 101.351562 276.296875 101.492188 276.546875 101.660156 C 276.796875 101.828125 277.03125 102.015625 277.242188 102.230469 C 277.453125 102.441406 277.644531 102.671875 277.8125 102.921875 C 277.980469 103.171875 278.121094 103.4375 278.234375 103.714844 C 278.351562 103.992188 278.4375 104.277344 278.496094 104.570312 C 278.554688 104.867188 278.582031 105.164062 278.582031 105.464844 L 278.582031 107.480469 C 278.582031 107.78125 278.554688 108.078125 278.496094 108.375 C 278.4375 108.667969 278.351562 108.953125 278.234375 109.230469 C 278.121094 109.511719 277.980469 109.773438 277.8125 110.023438 C 277.644531 110.273438 277.453125 110.503906 277.242188 110.714844 C 277.03125 110.929688 276.796875 111.117188 276.546875 111.285156 C 276.296875 111.453125 276.035156 111.59375 275.757812 111.707031 C 275.480469 111.824219 275.191406 111.910156 274.898438 111.96875 C 274.601562 112.027344 274.304688 112.054688 274.003906 112.054688 L 223.683594 112.054688 C 223.382812 112.054688 223.082031 112.027344 222.789062 111.96875 C 222.492188 111.910156 222.207031 111.824219 221.929688 111.707031 C 221.652344 111.59375 221.386719 111.453125 221.136719 111.285156 C 220.886719 111.117188 220.65625 110.929688 220.445312 110.714844 C 220.230469 110.503906 220.042969 110.273438 219.875 110.023438 C 219.707031 109.773438 219.566406 109.511719 219.449219 109.230469 C 219.335938 108.953125 219.25 108.667969 219.191406 108.375 C 219.132812 108.078125 219.101562 107.78125 219.101562 107.480469 L 219.101562 105.464844 C 219.101562 105.164062 219.132812 104.867188 219.191406 104.570312 C 219.25 104.277344 219.335938 103.992188 219.449219 103.714844 C 219.566406 103.4375 219.707031 103.171875 219.875 102.921875 C 220.042969 102.671875 220.230469 102.441406 220.445312 102.230469 C 220.65625 102.015625 220.886719 101.828125 221.136719 101.660156 C 221.386719 101.492188 221.652344 101.351562 221.929688 101.238281 C 222.207031 101.121094 222.492188 101.035156 222.789062 100.976562 C 223.082031 100.917969 223.382812 100.890625 223.683594 100.890625 Z M 223.683594 100.890625 " fill-opacity="1" fill-rule="nonzero"/><path fill="#cecece" d="M 222.945312 277.183594 L 200.914062 277.183594 C 196.597656 277.183594 193.089844 273.675781 193.089844 269.363281 C 193.089844 265.054688 196.597656 261.546875 200.914062 261.546875 L 222.945312 261.546875 C 227.257812 261.546875 230.769531 265.054688 230.769531 269.363281 C 230.769531 273.675781 227.257812 277.183594 222.945312 277.183594 Z M 200.914062 263.144531 C 197.480469 263.144531 194.6875 265.933594 194.6875 269.363281 C 194.6875 272.796875 197.480469 275.585938 200.914062 275.585938 L 222.945312 275.585938 C 226.378906 275.585938 229.171875 272.796875 229.171875 269.363281 C 229.171875 265.933594 226.378906 263.144531 222.945312 263.144531 Z M 200.914062 263.144531 " fill-opacity="1" fill-rule="nonzero"/><path fill="#cecece" d="M 223.703125 272.457031 C 223.265625 272.457031 222.90625 272.101562 222.90625 271.660156 L 222.90625 266.953125 C 222.90625 266.511719 223.265625 266.15625 223.703125 266.15625 C 224.144531 266.15625 224.503906 266.511719 224.503906 266.953125 L 224.503906 271.660156 C 224.503906 272.101562 224.144531 272.457031 223.703125 272.457031 Z M 223.703125 272.457031 " fill-opacity="1" fill-rule="nonzero"/><path fill="#cecece" d="M 226.058594 270.105469 L 221.347656 270.105469 C 220.90625 270.105469 220.550781 269.746094 220.550781 269.308594 C 220.550781 268.867188 220.90625 268.507812 221.347656 268.507812 L 226.058594 268.507812 C 226.5 268.507812 226.859375 268.867188 226.859375 269.308594 C 226.859375 269.746094 226.5 270.105469 226.058594 270.105469 Z M 226.058594 270.105469 " fill-opacity="1" fill-rule="nonzero"/><path fill="#cecece" d="M 202.535156 270.105469 L 197.824219 270.105469 C 197.382812 270.105469 197.027344 269.746094 197.027344 269.308594 C 197.027344 268.867188 197.382812 268.507812 197.824219 268.507812 L 202.535156 268.507812 C 202.976562 268.507812 203.335938 268.867188 203.335938 269.308594 C 203.335938 269.746094 202.976562 270.105469 202.535156 270.105469 Z M 202.535156 270.105469 " fill-opacity="1" fill-rule="nonzero"/><path fill="#b4b1b6" d="M 213.941406 272.421875 L 209.984375 272.421875 L 209.984375 271.589844 L 211.40625 270.15625 C 211.824219 269.726562 212.101562 269.425781 212.230469 269.261719 C 212.359375 269.09375 212.453125 268.941406 212.507812 268.800781 C 212.566406 268.65625 212.59375 268.511719 212.59375 268.359375 C 212.59375 268.132812 212.53125 267.960938 212.40625 267.851562 C 212.28125 267.742188 212.113281 267.683594 211.902344 267.683594 C 211.683594 267.683594 211.472656 267.734375 211.265625 267.835938 C 211.058594 267.9375 210.84375 268.078125 210.617188 268.265625 L 209.96875 267.496094 C 210.246094 267.257812 210.476562 267.089844 210.660156 266.992188 C 210.84375 266.894531 211.042969 266.820312 211.261719 266.765625 C 211.476562 266.714844 211.722656 266.6875 211.988281 266.6875 C 212.34375 266.6875 212.65625 266.753906 212.925781 266.882812 C 213.195312 267.011719 213.40625 267.191406 213.558594 267.421875 C 213.707031 267.65625 213.78125 267.921875 213.78125 268.21875 C 213.78125 268.480469 213.734375 268.722656 213.644531 268.953125 C 213.554688 269.179688 213.410156 269.414062 213.21875 269.652344 C 213.027344 269.894531 212.6875 270.234375 212.203125 270.679688 L 211.472656 271.363281 L 211.472656 271.417969 L 213.941406 271.417969 Z M 213.941406 272.421875 " fill-opacity="1" fill-rule="nonzero"/><path fill="#cecece" d="M 203.566406 193.429688 C 203.421875 193.429688 203.277344 193.433594 203.132812 193.445312 C 201.921875 193.53125 200.8125 193.988281 199.917969 194.699219 C 198.5625 195.773438 197.691406 197.433594 197.691406 199.296875 C 197.691406 203.929688 203.566406 208.730469 203.566406 208.730469 C 203.566406 208.730469 206.613281 206.207031 208.316406 203.089844 C 208.90625 202.011719 209.335938 200.867188 209.421875 199.726562 C 209.433594 199.585938 209.441406 199.441406 209.441406 199.296875 C 209.441406 196.058594 206.808594 193.429688 203.566406 193.429688 Z M 203.566406 202.457031 C 201.796875 202.457031 200.359375 201.023438 200.359375 199.257812 C 200.359375 198.140625 200.933594 197.15625 201.804688 196.582031 C 202.308594 196.25 202.914062 196.054688 203.566406 196.054688 C 205.335938 196.054688 206.769531 197.488281 206.769531 199.257812 C 206.769531 199.90625 206.574219 200.511719 206.242188 201.015625 C 205.667969 201.886719 204.683594 202.457031 203.566406 202.457031 Z M 203.566406 202.457031 " fill-opacity="1" fill-rule="nonzero"/><path fill="#eaeaea" d="M 216.710938 193.429688 L 297.15625 193.429688 C 297.53125 193.429688 297.894531 193.503906 298.242188 193.644531 C 298.589844 193.789062 298.894531 193.996094 299.164062 194.261719 C 299.429688 194.527344 299.632812 194.832031 299.777344 195.179688 C 299.921875 195.527344 299.996094 195.890625 299.996094 196.265625 L 299.996094 213.515625 C 299.996094 213.894531 299.921875 214.253906 299.777344 214.601562 C 299.632812 214.949219 299.429688 215.257812 299.164062 215.523438 C 298.894531 215.789062 298.589844 215.992188 298.242188 216.136719 C 297.894531 216.28125 297.53125 216.355469 297.15625 216.355469 L 216.710938 216.355469 C 216.335938 216.355469 215.972656 216.28125 215.625 216.136719 C 215.277344 215.992188 214.96875 215.789062 214.703125 215.523438 C 214.4375 215.257812 214.230469 214.949219 214.085938 214.601562 C 213.941406 214.253906 213.871094 213.894531 213.871094 213.515625 L 213.871094 196.265625 C 213.871094 195.890625 213.941406 195.527344 214.085938 195.179688 C 214.230469 194.832031 214.4375 194.527344 214.703125 194.261719 C 214.96875 193.996094 215.277344 193.789062 215.625 193.644531 C 215.972656 193.503906 216.335938 193.429688 216.710938 193.429688 Z M 216.710938 193.429688 " fill-opacity="1" fill-rule="nonzero"/><path fill="#eaeaea" d="M 216.710938 224.519531 L 297.15625 224.519531 C 297.53125 224.519531 297.894531 224.589844 298.242188 224.734375 C 298.589844 224.878906 298.894531 225.082031 299.164062 225.347656 C 299.429688 225.613281 299.632812 225.921875 299.777344 226.269531 C 299.921875 226.617188 299.996094 226.980469 299.996094 227.355469 L 299.996094 244.605469 C 299.996094 244.980469 299.921875 245.34375 299.777344 245.691406 C 299.632812 246.039062 299.429688 246.34375 299.164062 246.609375 C 298.894531 246.875 298.589844 247.082031 298.242188 247.226562 C 297.894531 247.371094 297.53125 247.441406 297.15625 247.441406 L 216.710938 247.441406 C 216.335938 247.441406 215.972656 247.371094 215.625 247.226562 C 215.277344 247.082031 214.96875 246.875 214.703125 246.609375 C 214.4375 246.34375 214.230469 246.039062 214.085938 245.691406 C 213.941406 245.34375 213.871094 244.980469 213.871094 244.605469 L 213.871094 227.355469 C 213.871094 226.980469 213.941406 226.617188 214.085938 226.269531 C 214.230469 225.921875 214.4375 225.613281 214.703125 225.347656 C 214.96875 225.082031 215.277344 224.878906 215.625 224.734375 C 215.972656 224.589844 216.335938 224.519531 216.710938 224.519531 Z M 216.710938 224.519531 " fill-opacity="1" fill-rule="nonzero"/><path fill="#cecece" d="M 209.441406 230.386719 C 209.441406 233.453125 207.085938 235.964844 204.085938 236.230469 L 204.085938 239.296875 C 204.085938 239.585938 203.851562 239.820312 203.566406 239.820312 C 203.421875 239.820312 203.292969 239.761719 203.199219 239.664062 C 203.101562 239.570312 203.042969 239.441406 203.042969 239.296875 L 203.042969 236.230469 C 200.042969 235.964844 197.691406 233.453125 197.691406 230.386719 C 197.691406 227.144531 200.320312 224.519531 203.566406 224.519531 C 206.808594 224.519531 209.441406 227.144531 209.441406 230.386719 Z M 209.441406 230.386719 " fill-opacity="1" fill-rule="nonzero"/><path fill="#ff946d" d="M 171.628906 91.519531 C 160.824219 91.519531 152.0625 100.269531 152.0625 111.0625 C 152.0625 126.488281 171.628906 142.480469 171.628906 142.480469 L 176.878906 142.480469 L 176.878906 137.535156 C 182.675781 131.574219 191.195312 121.101562 191.195312 111.0625 C 191.195312 100.269531 182.4375 91.519531 171.628906 91.519531 Z M 171.628906 121.585938 C 165.734375 121.585938 160.957031 116.8125 160.957031 110.925781 C 160.957031 105.039062 165.734375 100.265625 171.628906 100.265625 C 177.523438 100.265625 182.304688 105.039062 182.304688 110.925781 C 182.304688 116.8125 177.523438 121.585938 171.628906 121.585938 Z M 171.628906 121.585938 " fill-opacity="1" fill-rule="nonzero"/><path fill="#ffc931" d="M 176.878906 91.519531 C 176.394531 91.519531 175.917969 91.535156 175.445312 91.574219 C 171.410156 91.863281 167.714844 93.375 164.726562 95.742188 C 160.210938 99.324219 157.3125 104.855469 157.3125 111.0625 C 157.3125 126.488281 176.878906 142.480469 176.878906 142.480469 C 176.878906 142.480469 187.023438 134.074219 192.707031 123.691406 C 194.664062 120.105469 196.09375 116.285156 196.390625 112.492188 C 196.425781 112.015625 196.445312 111.539062 196.445312 111.0625 C 196.445312 100.269531 187.6875 91.519531 176.878906 91.519531 Z M 176.878906 121.589844 C 170.984375 121.589844 166.207031 116.816406 166.207031 110.929688 C 166.207031 107.207031 168.117188 103.925781 171.011719 102.019531 C 172.695312 100.910156 174.710938 100.265625 176.878906 100.265625 C 182.773438 100.265625 187.550781 105.039062 187.550781 110.929688 C 187.550781 113.09375 186.90625 115.109375 185.796875 116.789062 C 183.886719 119.679688 180.605469 121.589844 176.878906 121.589844 Z M 176.878906 121.589844 " fill-opacity="1" fill-rule="nonzero"/><path fill="#ffda7d" d="M 196.390625 112.492188 C 196.09375 116.285156 194.664062 120.105469 192.707031 123.691406 L 185.796875 116.789062 C 186.90625 115.109375 187.550781 113.09375 187.550781 110.929688 C 187.550781 105.039062 182.773438 100.265625 176.878906 100.265625 C 174.710938 100.265625 172.695312 100.910156 171.011719 102.019531 L 164.726562 95.742188 C 167.714844 93.375 171.410156 91.863281 175.445312 91.574219 Z M 196.390625 112.492188 " fill-opacity="1" fill-rule="nonzero"/><path fill="#efac8f" d="M 168.433594 235.644531 L 159.183594 260.664062 C 154.605469 259.375 150.480469 255.554688 147.339844 251.761719 C 143.546875 247.183594 141.183594 242.644531 141.183594 242.644531 C 142.753906 238.71875 153.804688 231.460938 160.042969 227.605469 C 162.570312 226.039062 164.304688 225.039062 164.304688 225.039062 Z M 168.433594 235.644531 " fill-opacity="1" fill-rule="nonzero"/><path fill="#e08369" d="M 159.183594 231.464844 C 159.183594 231.464844 150.875 238.8125 147.339844 251.761719 C 143.546875 247.183594 141.183594 242.644531 141.183594 242.644531 C 142.753906 238.71875 153.804688 231.460938 160.042969 227.605469 C 160.113281 228.75 159.863281 230.035156 159.183594 231.464844 Z M 159.183594 231.464844 " fill-opacity="1" fill-rule="nonzero"/><path fill="#ef6674" d="M 166.988281 226.621094 L 136.769531 245.382812 L 135.070312 286.828125 C 125.203125 287.988281 115.359375 289.632812 105.679688 291.867188 C 71.695312 299.707031 45.273438 298.339844 27.515625 289.589844 L 29.828125 216.382812 L 33.929688 166.792969 L 34.667969 157.890625 L 42.121094 154.960938 L 76.628906 141.394531 L 82.433594 139.113281 L 113.71875 145.640625 C 113.71875 145.640625 116.199219 146.699219 119.917969 148.316406 C 127.480469 151.597656 140.148438 157.160156 147.441406 160.734375 C 158.328125 166.066406 159.183594 174.808594 159.183594 174.808594 Z M 166.988281 226.621094 " fill-opacity="1" fill-rule="nonzero"/><path fill="#a04061" d="M 118.816406 147.835938 C 118.304688 152.488281 119.339844 157.570312 107.953125 157.890625 C 92.089844 158.34375 79.820312 146.660156 76.628906 141.394531 L 82.433594 139.113281 L 113.71875 145.640625 C 113.71875 145.640625 115.097656 146.222656 118.816406 147.835938 Z M 118.816406 147.835938 " fill-opacity="1" fill-rule="nonzero"/><path fill="#ffb26d" d="M 141.648438 198.6875 L 138.664062 227.257812 C 124.75 227.25 70.628906 227.019531 44.34375 224.0625 L 41.570312 196.554688 C 41.570312 196.554688 112.496094 198.671875 141.648438 198.6875 Z M 141.648438 198.6875 " fill-opacity="1" fill-rule="nonzero"/><path fill="#a04061" d="M 136.773438 246.179688 C 136.746094 246.179688 136.714844 246.179688 136.6875 246.175781 C 136.25 246.128906 135.929688 245.738281 135.976562 245.300781 L 137.871094 227.175781 L 141.1875 195.40625 C 141.234375 194.96875 141.628906 194.648438 142.066406 194.695312 C 142.503906 194.742188 142.824219 195.132812 142.777344 195.570312 L 137.566406 245.464844 C 137.523438 245.875 137.175781 246.179688 136.773438 246.179688 Z M 136.773438 246.179688 " fill-opacity="1" fill-rule="nonzero"/><path fill="#a04061" d="M 139.378906 237.769531 C 139.109375 237.769531 138.847656 237.636719 138.695312 237.390625 C 138.464844 237.015625 138.582031 236.523438 138.960938 236.292969 C 139.09375 236.210938 152.386719 228.070312 162.328125 222.628906 C 162.714844 222.414062 163.199219 222.558594 163.410156 222.941406 C 163.625 223.328125 163.480469 223.8125 163.09375 224.027344 C 153.191406 229.449219 139.925781 237.570312 139.792969 237.652344 C 139.664062 237.730469 139.519531 237.769531 139.378906 237.769531 Z M 139.378906 237.769531 " fill-opacity="1" fill-rule="nonzero"/><path fill="#efac8f" d="M 153.207031 245.382812 C 153.207031 245.382812 160.773438 222.710938 166.238281 209.347656 C 171.707031 195.988281 177.683594 178.46875 177.683594 178.46875 C 177.683594 178.46875 173.699219 173.765625 174.171875 168.269531 C 174.644531 162.769531 176.757812 158.753906 176.757812 158.753906 C 176.757812 158.753906 175.546875 159.097656 174.742188 156.328125 C 174.339844 154.953125 173.839844 153.027344 177.253906 151.496094 C 180.671875 149.960938 192.480469 147.277344 195.613281 147.941406 C 198.742188 148.605469 200.71875 152.246094 201.761719 154.804688 C 202.804688 157.363281 194.1875 178.46875 194.1875 178.46875 C 194.1875 178.46875 185.546875 238.644531 181.667969 249.148438 C 175.59375 265.589844 159.183594 260.664062 159.183594 260.664062 Z M 153.207031 245.382812 " fill-opacity="1" fill-rule="nonzero"/><path fill="#a04061" d="M 93.296875 286.480469 C 93.28125 286.480469 93.265625 286.480469 93.25 286.476562 C 80.308594 285.734375 69.964844 281.414062 63.5625 277.921875 C 56.613281 274.132812 52.777344 270.5625 52.617188 270.410156 C 52.296875 270.109375 52.28125 269.605469 52.582031 269.285156 C 52.886719 268.964844 53.390625 268.949219 53.710938 269.25 C 53.75 269.285156 57.59375 272.855469 64.375 276.550781 C 70.625 279.953125 80.722656 284.160156 93.339844 284.886719 C 93.78125 284.910156 94.117188 285.289062 94.09375 285.726562 C 94.066406 286.152344 93.714844 286.480469 93.296875 286.480469 Z M 93.296875 286.480469 " fill-opacity="1" fill-rule="nonzero"/><path fill="#e08369" d="M 183.65625 158.703125 C 183.582031 158.703125 183.511719 158.703125 183.4375 158.703125 C 182.996094 158.699219 182.640625 158.339844 182.644531 157.898438 C 182.648438 157.460938 183.003906 157.105469 183.445312 157.105469 L 183.449219 157.105469 C 191.210938 157.160156 197.542969 154.117188 197.609375 154.085938 C 198.003906 153.894531 198.480469 154.058594 198.675781 154.453125 C 198.871094 154.847656 198.707031 155.328125 198.308594 155.519531 C 198.042969 155.652344 191.710938 158.703125 183.65625 158.703125 Z M 183.65625 158.703125 " fill-opacity="1" fill-rule="nonzero"/><path fill="#efac8f" d="M 88.730469 119.875 L 81.6875 141.382812 C 81.6875 141.382812 104.066406 161.507812 114.445312 150.253906 L 115.054688 134.65625 Z M 88.730469 119.875 " fill-opacity="1" fill-rule="nonzero"/><path fill="#e08369" d="M 88.730469 119.875 L 87.480469 123.6875 C 96.359375 143.878906 105.453125 149.566406 114.726562 143.105469 L 115.054688 134.65625 Z M 88.730469 119.875 " fill-opacity="1" fill-rule="nonzero"/><path fill="#efac8f" d="M 141.894531 101.527344 C 141.894531 101.527344 132.542969 140.671875 115.363281 140.671875 C 98.179688 140.671875 86.28125 119.367188 86.28125 119.367188 C 86.28125 119.367188 81.679688 121.125 79.207031 110.851562 C 77.132812 102.238281 88.605469 99.851562 90.191406 105.589844 L 96.128906 88.667969 L 141.984375 93.628906 Z M 141.894531 101.527344 " fill-opacity="1" fill-rule="nonzero"/><path fill="#ffffff" d="M 106.363281 120.972656 C 106.363281 120.972656 112.566406 125.390625 122.976562 126.136719 C 122.976562 126.136719 120.542969 135.210938 113.632812 132.441406 C 106.722656 129.671875 106.363281 120.972656 106.363281 120.972656 Z M 106.363281 120.972656 " fill-opacity="1" fill-rule="nonzero"/><path fill="#354d6e" d="M 103.859375 93.832031 C 103.859375 93.832031 101.90625 101.234375 96.941406 104.359375 C 96.941406 104.359375 93.050781 110.257812 92.597656 116.25 C 92.597656 116.25 89.78125 109.734375 89.539062 104.199219 C 89.539062 104.199219 87.367188 101.707031 84.3125 102.503906 L 83.738281 86.9375 C 83.738281 86.9375 83.328125 76.113281 93.914062 76.113281 C 93.914062 76.113281 104.886719 63.542969 127.90625 65.21875 L 126.792969 68.183594 C 126.792969 68.183594 141.855469 70.941406 154.71875 79.785156 L 149.15625 81.636719 C 149.15625 81.636719 154.640625 90.566406 153.480469 100.640625 L 148.046875 95.953125 C 148.046875 95.953125 147.5 108.746094 143.84375 115.574219 L 140.878906 107.429688 L 137.171875 110.640625 C 138.15625 105.238281 137.746094 100.003906 135.691406 94.964844 C 135.691406 94.964844 131.554688 105.457031 118.640625 107.554688 L 120.371094 102.738281 L 108.878906 106.8125 C 108.878906 106.8125 113.585938 97.925781 114.933594 92.742188 C 114.933594 92.742188 111.542969 102.914062 99.859375 107.675781 C 99.859375 107.675781 102.835938 100.6875 103.859375 93.832031 Z M 103.859375 93.832031 " fill-opacity="1" fill-rule="nonzero"/><path fill="#354d6e" d="M 146.03125 168.105469 L 157.753906 145.886719 C 158.195312 145.050781 159.0625 144.527344 160.007812 144.527344 L 183.808594 144.527344 C 184.894531 144.527344 185.585938 145.691406 185.066406 146.640625 L 172.011719 170.542969 L 154.808594 174.378906 Z M 146.03125 168.105469 " fill-opacity="1" fill-rule="nonzero"/><path fill="#ef6674" d="M 34.667969 157.890625 C 34.667969 157.890625 18.304688 164.820312 16.167969 179.410156 C 14.035156 193.996094 40.074219 242.851562 40.074219 242.851562 L 49.679688 238.132812 L 72.648438 216.902344 L 59.285156 182.765625 Z M 34.667969 157.890625 " fill-opacity="1" fill-rule="nonzero"/><path fill="#a04061" d="M 72.648438 217.699219 C 72.332031 217.699219 72.03125 217.507812 71.90625 217.191406 L 59.210938 184.765625 C 59.050781 184.355469 59.253906 183.890625 59.664062 183.730469 C 60.074219 183.570312 60.539062 183.773438 60.699219 184.183594 L 73.394531 216.613281 C 73.554688 217.023438 73.351562 217.484375 72.941406 217.644531 C 72.84375 217.683594 72.746094 217.699219 72.648438 217.699219 Z M 72.648438 217.699219 " fill-opacity="1" fill-rule="nonzero"/><path fill="#a04061" d="M 41.570312 236.371094 C 41.335938 236.371094 41.105469 236.273438 40.949219 236.078125 C 40.671875 235.734375 40.722656 235.234375 41.066406 234.957031 C 41.1875 234.855469 53.652344 224.769531 67.839844 216.21875 C 68.214844 215.992188 68.707031 216.113281 68.933594 216.488281 C 69.164062 216.867188 69.042969 217.355469 68.664062 217.585938 C 54.578125 226.074219 42.195312 236.09375 42.074219 236.195312 C 41.925781 236.3125 41.746094 236.371094 41.570312 236.371094 Z M 41.570312 236.371094 " fill-opacity="1" fill-rule="nonzero"/><path fill="#efac8f" d="M 174.742188 171.5625 C 174.742188 171.5625 177.195312 176.695312 172.09375 180.148438 C 172.09375 180.148438 170.207031 185.257812 166.242188 187.167969 C 166.242188 187.167969 166.460938 190.15625 159.085938 192.496094 L 137.390625 193.421875 L 83.914062 248.496094 C 83.914062 248.496094 70.855469 261.707031 54.015625 247.03125 C 51.59375 244.921875 49.09375 242.234375 46.539062 238.84375 L 69.355469 219.160156 L 69.367188 219.148438 L 128.773438 178.46875 L 134.183594 170.242188 C 134.183594 170.242188 140.207031 162.722656 148.695312 163.050781 L 146.03125 168.105469 C 146.03125 168.105469 163.476562 174.164062 174.882812 165.222656 C 174.882812 165.222656 177.4375 168.867188 174.742188 171.5625 Z M 174.742188 171.5625 " fill-opacity="1" fill-rule="nonzero"/><path fill="#eb8c6c" d="M 46.539062 238.84375 L 69.355469 219.160156 C 68.921875 219.632812 56.238281 233.480469 54.015625 247.03125 C 51.59375 244.921875 49.09375 242.234375 46.539062 238.84375 Z M 46.539062 238.84375 " fill-opacity="1" fill-rule="nonzero"/><path fill="#e08369" d="M 163.59375 176.457031 C 163.175781 176.457031 162.828125 176.136719 162.796875 175.714844 C 162.765625 175.273438 163.097656 174.894531 163.539062 174.863281 C 171.28125 174.332031 174.097656 171.085938 174.125 171.054688 C 174.410156 170.71875 174.910156 170.671875 175.25 170.953125 C 175.585938 171.230469 175.636719 171.730469 175.359375 172.070312 C 175.230469 172.222656 172.148438 175.871094 163.648438 176.457031 C 163.628906 176.457031 163.613281 176.457031 163.59375 176.457031 Z M 163.59375 176.457031 " fill-opacity="1" fill-rule="nonzero"/><path fill="#e08369" d="M 161.886719 183.566406 C 161.445312 183.566406 161.089844 183.207031 161.089844 182.765625 C 161.089844 182.328125 161.445312 181.96875 161.886719 181.96875 C 166.757812 181.96875 171.679688 179.464844 171.726562 179.441406 C 172.121094 179.238281 172.601562 179.394531 172.804688 179.785156 C 173.003906 180.175781 172.851562 180.65625 172.460938 180.859375 C 172.246094 180.96875 167.140625 183.566406 161.886719 183.566406 Z M 161.886719 183.566406 " fill-opacity="1" fill-rule="nonzero"/><path fill="#e08369" d="M 159.183594 189.675781 C 158.753906 189.675781 158.398438 189.335938 158.382812 188.902344 C 158.371094 188.464844 158.71875 188.097656 159.15625 188.082031 C 163.40625 187.949219 165.792969 186.503906 165.816406 186.488281 C 166.191406 186.257812 166.683594 186.371094 166.917969 186.746094 C 167.148438 187.117188 167.035156 187.609375 166.664062 187.84375 C 166.554688 187.910156 163.921875 189.527344 159.207031 189.675781 C 159.199219 189.675781 159.191406 189.675781 159.183594 189.675781 Z M 159.183594 189.675781 " fill-opacity="1" fill-rule="nonzero"/><path fill="#e08369" d="M 70.230469 254.742188 C 65.578125 254.742188 59.785156 253.117188 53.492188 247.632812 C 53.160156 247.34375 53.125 246.839844 53.414062 246.507812 C 53.703125 246.175781 54.210938 246.140625 54.542969 246.429688 C 61.3125 252.328125 68.21875 254.371094 75.070312 252.496094 C 80.175781 251.101562 83.316406 247.964844 83.347656 247.933594 L 136.816406 192.867188 C 136.957031 192.722656 137.152344 192.632812 137.355469 192.625 L 159.050781 191.699219 C 159.492188 191.675781 159.863281 192.019531 159.882812 192.460938 C 159.902344 192.902344 159.558594 193.273438 159.117188 193.292969 L 137.742188 194.207031 L 84.488281 249.050781 C 84.34375 249.195312 81.003906 252.527344 75.492188 254.035156 C 73.976562 254.449219 72.207031 254.742188 70.230469 254.742188 Z M 70.230469 254.742188 " fill-opacity="1" fill-rule="nonzero"/><path fill="#ffffff" d="M 162.726562 148.054688 C 162.835938 148.195312 162.898438 148.363281 162.917969 148.558594 C 162.933594 148.753906 162.902344 148.964844 162.824219 149.1875 C 162.746094 149.410156 162.625 149.628906 162.464844 149.84375 C 162.300781 150.058594 162.109375 150.253906 161.886719 150.429688 C 161.664062 150.605469 161.429688 150.75 161.183594 150.859375 C 160.933594 150.964844 160.695312 151.035156 160.457031 151.058594 C 160.222656 151.085938 160.011719 151.066406 159.824219 151.007812 C 159.636719 150.945312 159.488281 150.84375 159.378906 150.703125 C 159.269531 150.566406 159.203125 150.398438 159.1875 150.203125 C 159.171875 150.007812 159.203125 149.796875 159.28125 149.574219 C 159.359375 149.351562 159.480469 149.132812 159.640625 148.917969 C 159.804688 148.699219 159.996094 148.503906 160.21875 148.328125 C 160.441406 148.152344 160.675781 148.011719 160.921875 147.902344 C 161.171875 147.792969 161.410156 147.726562 161.644531 147.699219 C 161.882812 147.675781 162.09375 147.691406 162.28125 147.753906 C 162.464844 147.816406 162.617188 147.914062 162.726562 148.054688 Z M 162.726562 148.054688 " fill-opacity="1" fill-rule="nonzero"/><path fill="#01cc8e" d="M 366.640625 233.097656 C 366.640625 234.105469 366.59375 235.109375 366.492188 236.113281 C 366.394531 237.113281 366.246094 238.109375 366.050781 239.097656 C 365.851562 240.085938 365.609375 241.0625 365.316406 242.027344 C 365.023438 242.992188 364.683594 243.941406 364.296875 244.871094 C 363.910156 245.800781 363.480469 246.710938 363.003906 247.601562 C 362.53125 248.488281 362.011719 249.351562 361.449219 250.191406 C 360.890625 251.027344 360.289062 251.835938 359.652344 252.613281 C 359.011719 253.394531 358.335938 254.140625 357.621094 254.851562 C 356.90625 255.566406 356.160156 256.242188 355.382812 256.878906 C 354.601562 257.519531 353.792969 258.117188 352.953125 258.679688 C 352.113281 259.238281 351.25 259.753906 350.359375 260.230469 C 349.472656 260.707031 348.558594 261.136719 347.628906 261.519531 C 346.695312 261.90625 345.746094 262.246094 344.78125 262.539062 C 343.816406 262.832031 342.839844 263.074219 341.851562 263.273438 C 340.863281 263.46875 339.863281 263.617188 338.859375 263.714844 C 337.855469 263.8125 336.851562 263.863281 335.84375 263.863281 C 334.832031 263.863281 333.828125 263.8125 332.824219 263.714844 C 331.820312 263.617188 330.824219 263.46875 329.832031 263.273438 C 328.84375 263.074219 327.867188 262.832031 326.902344 262.539062 C 325.9375 262.246094 324.988281 261.90625 324.054688 261.519531 C 323.125 261.136719 322.210938 260.707031 321.324219 260.230469 C 320.433594 259.753906 319.570312 259.238281 318.730469 258.679688 C 317.890625 258.117188 317.082031 257.519531 316.300781 256.878906 C 315.523438 256.242188 314.777344 255.566406 314.0625 254.851562 C 313.351562 254.140625 312.671875 253.394531 312.03125 252.613281 C 311.394531 251.835938 310.792969 251.027344 310.234375 250.191406 C 309.671875 249.351562 309.152344 248.488281 308.679688 247.601562 C 308.203125 246.710938 307.773438 245.800781 307.386719 244.871094 C 307 243.941406 306.660156 242.992188 306.367188 242.027344 C 306.074219 241.0625 305.832031 240.085938 305.632812 239.097656 C 305.4375 238.109375 305.289062 237.117188 305.191406 236.113281 C 305.089844 235.109375 305.042969 234.105469 305.042969 233.097656 C 305.042969 232.089844 305.089844 231.082031 305.191406 230.082031 C 305.289062 229.078125 305.4375 228.082031 305.632812 227.09375 C 305.832031 226.105469 306.074219 225.128906 306.367188 224.164062 C 306.660156 223.203125 307 222.253906 307.386719 221.324219 C 307.773438 220.390625 308.203125 219.480469 308.679688 218.59375 C 309.152344 217.703125 309.671875 216.839844 310.234375 216.003906 C 310.792969 215.167969 311.394531 214.359375 312.03125 213.578125 C 312.671875 212.800781 313.351562 212.054688 314.0625 211.339844 C 314.777344 210.628906 315.523438 209.953125 316.300781 209.3125 C 317.082031 208.675781 317.890625 208.074219 318.730469 207.515625 C 319.570312 206.957031 320.433594 206.4375 321.324219 205.964844 C 322.210938 205.488281 323.125 205.058594 324.054688 204.671875 C 324.988281 204.285156 325.9375 203.949219 326.902344 203.65625 C 327.867188 203.363281 328.84375 203.117188 329.832031 202.921875 C 330.824219 202.726562 331.820312 202.578125 332.824219 202.476562 C 333.828125 202.378906 334.832031 202.332031 335.84375 202.332031 C 336.851562 202.332031 337.855469 202.378906 338.859375 202.476562 C 339.863281 202.578125 340.863281 202.726562 341.851562 202.921875 C 342.839844 203.117188 343.816406 203.363281 344.78125 203.65625 C 345.746094 203.949219 346.695312 204.285156 347.628906 204.671875 C 348.558594 205.058594 349.472656 205.488281 350.359375 205.964844 C 351.25 206.4375 352.113281 206.957031 352.953125 207.515625 C 353.792969 208.074219 354.601562 208.675781 355.382812 209.3125 C 356.160156 209.953125 356.90625 210.628906 357.621094 211.339844 C 358.335938 212.054688 359.011719 212.800781 359.652344 213.578125 C 360.289062 214.359375 360.890625 215.167969 361.449219 216.003906 C 362.011719 216.839844 362.53125 217.703125 363.003906 218.59375 C 363.480469 219.480469 363.910156 220.390625 364.296875 221.324219 C 364.683594 222.253906 365.023438 223.203125 365.316406 224.164062 C 365.609375 225.128906 365.851562 226.105469 366.050781 227.09375 C 366.246094 228.082031 366.394531 229.078125 366.492188 230.082031 C 366.59375 231.082031 366.640625 232.089844 366.640625 233.097656 Z M 366.640625 233.097656 " fill-opacity="1" fill-rule="nonzero"/><path fill="#7fe192" d="M 359.878906 233.097656 C 359.878906 235.117188 359.6875 237.085938 359.3125 238.996094 C 358.355469 243.933594 356.210938 248.449219 353.195312 252.238281 C 347.554688 259.320312 338.847656 263.863281 329.082031 263.863281 C 312.070312 263.863281 298.277344 250.089844 298.277344 233.097656 C 298.277344 223.339844 302.828125 214.644531 309.917969 209.007812 C 313.710938 205.992188 318.230469 203.855469 323.171875 202.894531 C 325.085938 202.523438 327.058594 202.332031 329.082031 202.332031 C 346.089844 202.332031 359.878906 216.105469 359.878906 233.097656 Z M 359.878906 233.097656 " fill-opacity="1" fill-rule="nonzero"/><path fill="#95f9a6" d="M 359.3125 238.996094 C 358.355469 243.933594 356.210938 248.449219 353.195312 252.238281 L 309.917969 209.007812 C 313.710938 205.992188 318.230469 203.855469 323.171875 202.894531 Z M 359.3125 238.996094 " fill-opacity="1" fill-rule="nonzero"/><path fill="#ace6fe" d="M 325.75 251.613281 L 325.738281 251.613281 C 324.550781 251.609375 323.429688 251.078125 322.671875 250.164062 L 311.824219 237.042969 C 310.417969 235.347656 310.660156 232.832031 312.359375 231.429688 C 314.058594 230.027344 316.574219 230.265625 317.980469 231.964844 L 325.769531 241.386719 L 342.6875 221.191406 C 344.101562 219.503906 346.617188 219.277344 348.308594 220.691406 C 350 222.105469 350.226562 224.621094 348.808594 226.308594 L 328.8125 250.183594 C 328.054688 251.089844 326.933594 251.613281 325.75 251.613281 Z M 325.75 251.613281 " fill-opacity="1" fill-rule="nonzero"/><path fill="#ffffff" d="M 323.257812 251.613281 L 323.246094 251.613281 C 322.058594 251.609375 320.9375 251.078125 320.179688 250.164062 L 309.332031 237.042969 C 307.929688 235.347656 308.167969 232.832031 309.867188 231.429688 C 311.566406 230.027344 314.085938 230.265625 315.488281 231.964844 L 323.277344 241.386719 L 340.195312 221.191406 C 341.609375 219.503906 344.128906 219.277344 345.820312 220.691406 C 347.511719 222.105469 347.734375 224.621094 346.320312 226.308594 L 326.320312 250.183594 C 325.5625 251.089844 324.441406 251.613281 323.257812 251.613281 Z M 323.257812 251.613281 " fill-opacity="1" fill-rule="nonzero"/></svg>